<?xml version="1.0"?>
<svg width="480" height="480" xmlns="http://www.w3.org/2000/svg" xmlns:svg="http://www.w3.org/2000/svg">
 

 <g class="layer">
  <title>Layer 1</title>
  <rect fill="#ff0000" height="475" id="svg_18" stroke="#ff0000" stroke-dasharray="null" stroke-linecap="null" stroke-linejoin="null" stroke-width="5" width="477.999987" x="2.611129" y="1.944484"/>
  <circle cx="239.055569" cy="241.055556" fill="#000000" fill-opacity="0" id="svg_22" r="195.091949" stroke="#000000" stroke-dasharray="null" stroke-linecap="null" stroke-linejoin="null" stroke-width="26"/>
  <path d="m247.207698,119.961515l1.407687,14.038485l2.384615,16l2,12l3,15l4.076923,14.846154l4.384615,13.153846l5.461539,13.846154l6.461539,12.999999l8.999999,15.538462l10.846154,16.461539l11.230769,14.692308l11.461538,12.461538l13.846155,13.307692l11.692307,12.307693l11.692308,10.615384l20.307692,0.230769l-14.692307,-13.846153l-13.769231,-12.615385l-13,-12l-10,-9l-9.384615,-10.153846l-8.615385,-10.846154l-5.923077,-8.461538c-4.358975,-7.692308 -9.025641,-15.23077 -12.923077,-21.538462l-5.307692,-9.923077l-5.230769,-10.615385l-4.615385,-12.461538l-4,-12l-3,-11l-3,-12l-2.307692,-11.692308l-1.692308,-10.307692l-1.615385,-9.307692l-0.846153,-9.769231" fill="#000000" id="svg_43" stroke="#000000" stroke-dasharray="null" stroke-linecap="null" stroke-linejoin="null" stroke-width="0"/>
  <path d="m228.473089,120.369199l-1.347703,14.038485l-2.283003,16l-1.914777,12l-2.872166,15l-3.903199,14.846154l-4.19778,13.153846l-5.228815,13.846154l-6.186204,12.999999l-8.616496,15.538462l-10.383984,16.461539l-10.75221,14.692308l-10.973145,12.461538l-13.25615,13.307692l-11.194081,12.307693l-11.194082,10.615384l-19.442352,0.230769l14.066247,-13.846153l13.182504,-12.615385l12.446051,-12l9.573886,-9l8.984723,-10.153846l8.248271,-10.846154l5.670686,-8.461538c4.173233,-7.692308 8.641045,-15.23077 12.372406,-21.538462l5.081524,-9.923077l5.007878,-10.615385l4.418717,-12.461538l3.829554,-12l2.872166,-11l2.872166,-12l2.209358,-11.692308l1.620196,-10.307692l1.546551,-9.307692l0.810097,-9.769231" fill="#000000" id="svg_44" stroke="#000000" stroke-dasharray="null" stroke-linecap="null" stroke-linejoin="null" stroke-width="0"/>
  <rect fill="#000000" height="10" id="svg_45" stroke="#000000" stroke-dasharray="null" stroke-linecap="null" stroke-linejoin="null" stroke-opacity="0" stroke-width="5" width="179.000002" x="148.900004" y="162.899966"/>
  <rect fill="#000000" height="12" id="svg_46" stroke="#000000" stroke-dasharray="null" stroke-linecap="null" stroke-linejoin="null" stroke-opacity="0" stroke-width="5" width="117.000001" x="180.100002" y="246.299996"/>
 </g>
</svg>